<svg width="67" height="24" viewBox="0 0 67 24" fill="none" xmlns="http://www.w3.org/2000/svg">
<path d="M6.25 6.16663C4.79459 6.16663 3.47325 6.56401 2.5 7.21061V18.0439C3.47325 17.3973 4.79459 17 6.25 17C7.70541 17 9.02675 17.3973 10 18.0439C10.9732 17.3973 12.2946 17 13.75 17C15.2054 17 16.5268 17.3973 17.5 18.0439V7.21061C16.5268 6.56401 15.2054 6.16663 13.75 6.16663C12.2946 6.16663 10.9732 6.56401 10 7.21061C9.02675 6.56401 7.70541 6.16663 6.25 6.16663Z" fill="white"/>
<path d="M10 7.21061V18.0439M10 7.21061C9.02675 6.56401 7.70541 6.16663 6.25 6.16663C4.79459 6.16663 3.47325 6.56401 2.5 7.21061V18.0439C3.47325 17.3973 4.79459 17 6.25 17C7.70541 17 9.02675 17.3973 10 18.0439M10 7.21061C10.9732 6.56401 12.2946 6.16663 13.75 6.16663C15.2054 6.16663 16.5268 6.56401 17.5 7.21061V18.0439C16.5268 17.3973 15.2054 17 13.75 17C12.2946 17 10.9732 17.3973 10 18.0439" stroke="#111827" stroke-linecap="round" stroke-linejoin="round"/>
<path d="M29.68 6.128C29.7973 6.128 29.984 6.128 30.24 6.128C30.5067 6.128 30.7893 6.13333 31.088 6.144C31.3973 6.144 31.68 6.144 31.936 6.144C32.2027 6.144 32.4 6.144 32.528 6.144C33.9893 6.16533 35.1787 6.41067 36.096 6.88C37.0133 7.33867 37.6853 7.99467 38.112 8.848C38.5493 9.70133 38.768 10.7467 38.768 11.984C38.768 13.2853 38.5333 14.384 38.064 15.28C37.6053 16.176 36.9013 16.8533 35.952 17.312C35.0133 17.7707 33.824 18 32.384 18H29.696C29.504 18 29.408 17.904 29.408 17.712V6.384C29.408 6.288 29.4293 6.224 29.472 6.192C29.5147 6.14933 29.584 6.128 29.68 6.128ZM31.504 7.552C31.3973 7.552 31.344 7.62667 31.344 7.776V16.4C31.344 16.528 31.408 16.592 31.536 16.592H32.064C33.1413 16.592 34.0267 16.4427 34.72 16.144C35.4133 15.8453 35.9253 15.3653 36.256 14.704C36.5867 14.032 36.752 13.1467 36.752 12.048C36.752 10.9173 36.5867 10.0267 36.256 9.376C35.9253 8.72533 35.4187 8.26133 34.736 7.984C34.064 7.696 33.2053 7.552 32.16 7.552H31.504ZM44.4871 18.16C43.6658 18.16 42.9458 17.9787 42.3271 17.616C41.7085 17.2427 41.2285 16.7307 40.8871 16.08C40.5458 15.4187 40.3751 14.6613 40.3751 13.808C40.3751 12.9227 40.5511 12.1493 40.9031 11.488C41.2551 10.816 41.7405 10.2933 42.3591 9.92C42.9885 9.54667 43.7031 9.36 44.5031 9.36C45.3351 9.36 46.0551 9.552 46.6631 9.936C47.2818 10.3093 47.7618 10.832 48.1031 11.504C48.4445 12.1653 48.6151 12.928 48.6151 13.792C48.6151 14.6453 48.4391 15.4027 48.0871 16.064C47.7458 16.7147 47.2658 17.2267 46.6471 17.6C46.0285 17.9733 45.3085 18.16 44.4871 18.16ZM44.5191 16.96C45.0205 16.96 45.4471 16.832 45.7991 16.576C46.1511 16.32 46.4178 15.9573 46.5991 15.488C46.7911 15.008 46.8871 14.432 46.8871 13.76C46.8871 13.088 46.7911 12.512 46.5991 12.032C46.4178 11.552 46.1458 11.184 45.7831 10.928C45.4311 10.6613 45.0045 10.528 44.5031 10.528C44.0018 10.528 43.5698 10.6613 43.2071 10.928C42.8551 11.184 42.5831 11.552 42.3911 12.032C42.1991 12.512 42.1031 13.088 42.1031 13.76C42.1031 14.432 42.1991 15.008 42.3911 15.488C42.5831 15.9573 42.8551 16.32 43.2071 16.576C43.5698 16.832 44.0071 16.96 44.5191 16.96ZM54.0333 9.36C54.6306 9.36 55.1479 9.46133 55.5853 9.664C56.0333 9.856 56.4066 10.1173 56.7053 10.448C57.0146 10.768 57.2599 11.1147 57.4413 11.488C57.5053 11.6373 57.4679 11.728 57.3293 11.76L56.1933 11.952C56.0973 11.9733 56.0279 11.9307 55.9853 11.824C55.8039 11.5467 55.6226 11.3173 55.4413 11.136C55.2599 10.9547 55.0626 10.8107 54.8493 10.704C54.6359 10.5973 54.3906 10.544 54.1133 10.544C53.6226 10.544 53.1906 10.672 52.8173 10.928C52.4546 11.1733 52.1719 11.536 51.9693 12.016C51.7773 12.496 51.6813 13.0773 51.6813 13.76C51.6813 14.4427 51.7826 15.0293 51.9853 15.52C52.1879 16 52.4759 16.368 52.8493 16.624C53.2226 16.8693 53.6653 16.992 54.1773 16.992C54.6786 16.992 55.0999 16.864 55.4413 16.608C55.7826 16.352 56.0973 15.9893 56.3853 15.52C56.4173 15.4773 56.4439 15.4507 56.4653 15.44C56.4973 15.4293 56.5453 15.4347 56.6093 15.456L57.4573 15.712C57.5426 15.744 57.5639 15.824 57.5213 15.952C57.3933 16.2187 57.2226 16.4853 57.0093 16.752C56.8066 17.0187 56.5613 17.2587 56.2733 17.472C55.9959 17.6747 55.6706 17.84 55.2973 17.968C54.9239 18.096 54.5026 18.16 54.0333 18.16C53.2333 18.16 52.5239 17.9787 51.9053 17.616C51.2973 17.2427 50.8173 16.7307 50.4653 16.08C50.1239 15.4187 49.9533 14.656 49.9533 13.792C49.9533 12.9173 50.1293 12.1493 50.4813 11.488C50.8333 10.8267 51.3133 10.3093 51.9213 9.936C52.5399 9.552 53.2439 9.36 54.0333 9.36ZM64.256 11.504C64.0533 11.2053 63.7707 10.96 63.408 10.768C63.0453 10.576 62.6133 10.48 62.112 10.48C61.5893 10.48 61.152 10.5867 60.8 10.8C60.4587 11.0133 60.288 11.312 60.288 11.696C60.288 11.8773 60.3627 12.0587 60.512 12.24C60.6613 12.4213 60.9813 12.5813 61.472 12.72L63.44 13.28C64.2187 13.4827 64.7787 13.7867 65.12 14.192C65.4613 14.5973 65.632 15.0613 65.632 15.584C65.632 16.1173 65.4773 16.576 65.168 16.96C64.8693 17.3333 64.448 17.6267 63.904 17.84C63.3707 18.0533 62.7573 18.16 62.064 18.16C61.1893 18.16 60.4267 17.9947 59.776 17.664C59.136 17.3227 58.6827 16.9013 58.416 16.4C58.3947 16.336 58.384 16.2827 58.384 16.24C58.384 16.1867 58.4053 16.144 58.448 16.112L59.232 15.696C59.3067 15.6533 59.3653 15.6373 59.408 15.648C59.4613 15.648 59.4987 15.6693 59.52 15.712C59.6907 15.9573 59.888 16.176 60.112 16.368C60.336 16.56 60.608 16.7147 60.928 16.832C61.248 16.9387 61.632 16.992 62.08 16.992C62.4533 16.992 62.7893 16.944 63.088 16.848C63.3973 16.7413 63.6373 16.5973 63.808 16.416C63.9787 16.2347 64.064 16.0213 64.064 15.776C64.064 15.52 63.9573 15.3013 63.744 15.12C63.5413 14.928 63.1787 14.7627 62.656 14.624L61.024 14.208C60.2133 13.9947 59.632 13.7013 59.28 13.328C58.928 12.9547 58.752 12.5067 58.752 11.984C58.752 11.4613 58.8907 11.008 59.168 10.624C59.4453 10.2293 59.8347 9.92 60.336 9.696C60.848 9.472 61.4453 9.36 62.128 9.36C62.8747 9.36 63.5307 9.504 64.096 9.792C64.6613 10.0693 65.088 10.4267 65.376 10.864C65.408 10.9067 65.4293 10.9547 65.44 11.008C65.4507 11.0507 65.424 11.0933 65.36 11.136L64.528 11.568C64.4853 11.5893 64.4373 11.5947 64.384 11.584C64.3413 11.5733 64.2987 11.5467 64.256 11.504Z" fill="#0E0333"/>
</svg>
