<svg width="102" height="24" viewBox="0 0 102 24" fill="none" xmlns="http://www.w3.org/2000/svg">
<path d="M7.05374 9.05374C5.42655 10.6809 5.42655 13.3191 7.05374 14.9463L7.50965 15.4022C8.03706 15.9296 8.33335 16.6449 8.33335 17.3908V17.8333C8.33335 18.7538 9.07954 19.5 10 19.5C10.9205 19.5 11.6667 18.7538 11.6667 17.8333V17.3908C11.6667 16.6449 11.963 15.9296 12.4904 15.4022L12.9463 14.9463C14.5735 13.3191 14.5735 10.6809 12.9463 9.05374C11.3191 7.42656 8.68092 7.42656 7.05374 9.05374Z" fill="white"/>
<path d="M8.05295 16.1667H11.9471M10 4.5V5.33333M15.3033 6.6967L14.7141 7.28596M17.5001 12H16.6667M3.33339 12H2.50006M5.28597 7.28595L4.69672 6.6967M7.05374 14.9463C5.42655 13.3191 5.42655 10.6809 7.05374 9.05374C8.68092 7.42656 11.3191 7.42656 12.9463 9.05374C14.5735 10.6809 14.5735 13.3191 12.9463 14.9463L12.4904 15.4022C11.963 15.9296 11.6667 16.6449 11.6667 17.3908V17.8333C11.6667 18.7538 10.9205 19.5 10 19.5C9.07954 19.5 8.33335 18.7538 8.33335 17.8333V17.3908C8.33335 16.6449 8.03706 15.9296 7.50965 15.4022L7.05374 14.9463Z" stroke="#111827" stroke-linecap="round" stroke-linejoin="round"/>
<path d="M29.408 6.368C29.408 6.208 29.4827 6.128 29.632 6.128H37.088C37.216 6.128 37.28 6.19733 37.28 6.336L37.264 7.344C37.264 7.504 37.184 7.584 37.024 7.584H31.584C31.424 7.584 31.344 7.65333 31.344 7.792V11.088C31.344 11.2267 31.4133 11.296 31.552 11.296H35.456C35.5947 11.296 35.664 11.36 35.664 11.488V12.56C35.664 12.6133 35.648 12.656 35.616 12.688C35.5947 12.72 35.5413 12.736 35.456 12.736H31.536C31.408 12.736 31.344 12.7947 31.344 12.912V16.368C31.344 16.4853 31.3973 16.544 31.504 16.544H37.248C37.3973 16.544 37.472 16.608 37.472 16.736V17.792C37.472 17.856 37.456 17.9093 37.424 17.952C37.392 17.984 37.3333 18 37.248 18H29.68C29.4987 18 29.408 17.9147 29.408 17.744V6.368ZM46.2285 17.6C46.3352 17.7493 46.3778 17.856 46.3565 17.92C46.3458 17.9733 46.2765 18 46.1485 18H44.7405C44.5485 18 44.4152 17.9413 44.3405 17.824L42.2765 14.96C42.2125 14.864 42.1592 14.816 42.1165 14.816C42.0845 14.816 42.0312 14.864 41.9565 14.96L39.8125 17.824C39.7378 17.9413 39.6098 18 39.4285 18H38.5005C38.3725 18 38.2818 17.968 38.2285 17.904C38.1858 17.8293 38.2285 17.7067 38.3565 17.536L41.1885 13.936C41.2418 13.8507 41.2632 13.7813 41.2525 13.728C41.2525 13.6747 41.2258 13.6107 41.1725 13.536L38.4525 9.84C38.3992 9.76533 38.3885 9.696 38.4205 9.632C38.4525 9.55733 38.5218 9.52 38.6285 9.52H39.9565C40.0632 9.52 40.1432 9.536 40.1965 9.568C40.2498 9.58933 40.2978 9.632 40.3405 9.696L42.2925 12.368C42.3778 12.496 42.4578 12.496 42.5325 12.368L44.4205 9.696C44.4632 9.632 44.5112 9.58933 44.5645 9.568C44.6178 9.536 44.6978 9.52 44.8045 9.52H45.8285C45.9352 9.52 45.9938 9.54667 46.0045 9.6C46.0152 9.65333 45.9992 9.71733 45.9565 9.792L43.3485 13.28C43.2845 13.3547 43.2525 13.424 43.2525 13.488C43.2632 13.5413 43.2952 13.6053 43.3485 13.68L46.2285 17.6ZM52.3728 17.04C51.9994 17.4027 51.5888 17.68 51.1408 17.872C50.6928 18.064 50.1861 18.16 49.6208 18.16C48.7994 18.16 48.1541 17.9467 47.6848 17.52C47.2154 17.0933 46.9808 16.5333 46.9808 15.84C46.9808 15.2533 47.1461 14.752 47.4768 14.336C47.8181 13.92 48.3088 13.5893 48.9488 13.344C49.5994 13.0987 50.3888 12.9547 51.3168 12.912L52.3568 12.832C52.4208 12.8213 52.4794 12.8 52.5328 12.768C52.5861 12.736 52.6128 12.6773 52.6128 12.592V12.192C52.6128 11.6693 52.4528 11.2587 52.1328 10.96C51.8128 10.6507 51.3754 10.496 50.8208 10.496C50.4048 10.496 50.0208 10.592 49.6688 10.784C49.3168 10.976 49.0021 11.2747 48.7248 11.68C48.6928 11.7333 48.6608 11.7707 48.6288 11.792C48.5968 11.8133 48.5381 11.8133 48.4528 11.792L47.3648 11.472C47.3221 11.4507 47.2901 11.424 47.2688 11.392C47.2581 11.3493 47.2741 11.2747 47.3168 11.168C47.6261 10.592 48.0794 10.1493 48.6768 9.84C49.2848 9.52 50.0261 9.36 50.9008 9.36C51.6688 9.36 52.2981 9.472 52.7888 9.696C53.2794 9.90933 53.6421 10.224 53.8768 10.64C54.1221 11.0453 54.2448 11.5253 54.2448 12.08V17.728C54.2448 17.8347 54.2234 17.9093 54.1808 17.952C54.1488 17.984 54.0901 18 54.0048 18H52.9168C52.8421 18 52.7834 17.9733 52.7408 17.92C52.6981 17.856 52.6714 17.776 52.6608 17.68L52.6448 17.072C52.6128 16.9013 52.5221 16.8907 52.3728 17.04ZM52.6128 14.016C52.6128 13.8347 52.5381 13.7547 52.3888 13.776L51.5248 13.84C51.0981 13.8613 50.7088 13.92 50.3568 14.016C50.0048 14.1013 49.7008 14.2187 49.4448 14.368C49.1994 14.5173 49.0021 14.6987 48.8528 14.912C48.7141 15.1147 48.6448 15.3547 48.6448 15.632C48.6448 16.048 48.7888 16.3787 49.0768 16.624C49.3754 16.8587 49.7754 16.976 50.2768 16.976C50.5968 16.976 50.8954 16.9227 51.1727 16.816C51.4608 16.6987 51.7114 16.5547 51.9248 16.384C52.1381 16.2027 52.3034 16.016 52.4208 15.824C52.5488 15.632 52.6128 15.4453 52.6128 15.264V14.016ZM56.6729 18C56.5022 18 56.4169 17.9147 56.4169 17.744V9.76C56.4169 9.6 56.4862 9.52 56.6249 9.52H57.8729C58.0009 9.52 58.0649 9.58933 58.0649 9.728V10.608C58.0649 10.6613 58.0809 10.6987 58.1129 10.72C58.1449 10.7307 58.1822 10.7093 58.2249 10.656C58.5555 10.3893 58.8649 10.16 59.1529 9.968C59.4409 9.76533 59.7342 9.616 60.0329 9.52C60.3422 9.41333 60.6729 9.36 61.0249 9.36C61.6329 9.36 62.1289 9.504 62.5129 9.792C62.8969 10.0693 63.1582 10.4053 63.2969 10.8C63.3182 10.8427 63.3449 10.8587 63.3769 10.848C63.4195 10.8373 63.4622 10.8107 63.5049 10.768C63.8142 10.48 64.1235 10.2347 64.4329 10.032C64.7422 9.81867 65.0569 9.65333 65.3769 9.536C65.6969 9.41867 66.0329 9.36 66.3849 9.36C67.1529 9.36 67.7502 9.584 68.1769 10.032C68.6142 10.48 68.8329 11.0827 68.8329 11.84V17.712C68.8329 17.904 68.7369 18 68.5449 18H67.3609C67.2862 18 67.2275 17.984 67.1849 17.952C67.1529 17.9093 67.1369 17.84 67.1369 17.744V12.144C67.1369 11.6747 67.0195 11.3067 66.7849 11.04C66.5502 10.7733 66.1982 10.64 65.7289 10.64C65.4515 10.64 65.1849 10.6933 64.9289 10.8C64.6729 10.9067 64.4382 11.04 64.2249 11.2C64.0222 11.3493 63.8409 11.4987 63.6809 11.648C63.6062 11.7227 63.5529 11.792 63.5209 11.856C63.4889 11.92 63.4729 12.0053 63.4729 12.112V17.712C63.4729 17.904 63.3769 18 63.1849 18H62.0169C61.9422 18 61.8835 17.984 61.8409 17.952C61.7982 17.9093 61.7769 17.84 61.7769 17.744V12.144C61.7769 11.6747 61.6649 11.3067 61.4409 11.04C61.2169 10.7733 60.8595 10.64 60.3689 10.64C59.9635 10.64 59.5902 10.7413 59.2489 10.944C58.9182 11.136 58.5395 11.4347 58.1129 11.84V17.728C58.1129 17.9093 58.0115 18 57.8089 18H56.6729ZM72.4034 9.52C72.5847 9.52 72.6754 9.60533 72.6754 9.776V10.4C72.6754 10.4747 72.6914 10.5173 72.7234 10.528C72.766 10.528 72.8194 10.5013 72.8834 10.448C73.022 10.3093 73.1927 10.16 73.3954 10C73.598 9.82933 73.854 9.68 74.1634 9.552C74.4834 9.424 74.8727 9.36 75.3314 9.36C75.982 9.36 76.5634 9.52 77.0754 9.84C77.598 10.1493 78.0087 10.6187 78.3074 11.248C78.6167 11.8773 78.7714 12.6773 78.7714 13.648C78.7714 14.6293 78.6167 15.456 78.3074 16.128C78.0087 16.7893 77.5874 17.296 77.0434 17.648C76.51 17.9893 75.886 18.16 75.1714 18.16C74.702 18.16 74.2807 18.0907 73.9074 17.952C73.5447 17.8027 73.2247 17.6053 72.9474 17.36C72.8514 17.264 72.782 17.2267 72.7394 17.248C72.6967 17.2587 72.6754 17.328 72.6754 17.456V20.416C72.6754 20.5653 72.6114 20.64 72.4834 20.64H71.1874C71.0487 20.64 70.9794 20.5653 70.9794 20.416V9.808C70.9794 9.70133 71.0007 9.62667 71.0434 9.584C71.086 9.54133 71.166 9.52 71.2834 9.52H72.4034ZM72.6754 16.032C72.9634 16.3307 73.262 16.5707 73.5714 16.752C73.8914 16.9227 74.2487 17.008 74.6434 17.008C75.1234 17.008 75.5394 16.8853 75.8914 16.64C76.254 16.3947 76.5367 16.0267 76.7394 15.536C76.942 15.0347 77.0434 14.4053 77.0434 13.648C77.0434 12.8907 76.9367 12.2827 76.7234 11.824C76.5207 11.3653 76.2434 11.0347 75.8914 10.832C75.5394 10.6187 75.15 10.512 74.7234 10.512C74.3287 10.512 73.9767 10.5973 73.6674 10.768C73.358 10.9387 73.1127 11.152 72.9314 11.408C72.7607 11.664 72.6754 11.92 72.6754 12.176V16.032ZM82.3008 17.696C82.3008 17.8133 82.2741 17.8933 82.2208 17.936C82.1781 17.9787 82.0928 18 81.9648 18H80.8768C80.6848 18 80.5888 17.9147 80.5888 17.744L80.6208 6.368C80.6208 6.208 80.6901 6.128 80.8288 6.128H82.0928C82.2314 6.128 82.3008 6.208 82.3008 6.368V17.696ZM85.8535 14.352C85.8535 14.832 85.9655 15.2693 86.1895 15.664C86.4242 16.048 86.7335 16.3573 87.1175 16.592C87.5122 16.816 87.9495 16.928 88.4295 16.928C88.9202 16.928 89.3575 16.8267 89.7415 16.624C90.1255 16.4213 90.4775 16.1067 90.7975 15.68C90.8295 15.6373 90.8615 15.616 90.8935 15.616C90.9255 15.6053 90.9735 15.616 91.0375 15.648L91.8535 16.032C91.9708 16.0853 91.9815 16.1707 91.8855 16.288C91.5868 16.7253 91.2562 17.0827 90.8935 17.36C90.5415 17.6373 90.1468 17.84 89.7095 17.968C89.2722 18.096 88.7868 18.16 88.2535 18.16C87.4428 18.16 86.7282 17.9787 86.1095 17.616C85.4908 17.2533 85.0002 16.7467 84.6375 16.096C84.2855 15.4453 84.1095 14.6987 84.1095 13.856C84.1095 12.928 84.2908 12.1333 84.6535 11.472C85.0162 10.8 85.5068 10.2827 86.1255 9.92C86.7548 9.54667 87.4535 9.36 88.2215 9.36C89.0108 9.36 89.6988 9.536 90.2855 9.888C90.8828 10.2293 91.3468 10.7253 91.6775 11.376C92.0082 12.0267 92.1735 12.816 92.1735 13.744C92.1735 13.84 92.1628 13.9253 92.1415 14C92.1202 14.064 92.0508 14.096 91.9335 14.096H86.0135C85.9602 14.096 85.9175 14.1227 85.8855 14.176C85.8642 14.2187 85.8535 14.2773 85.8535 14.352ZM90.2215 13.088C90.3388 13.088 90.4135 13.072 90.4455 13.04C90.4775 13.008 90.4935 12.9493 90.4935 12.864C90.4935 12.4587 90.4028 12.0747 90.2215 11.712C90.0508 11.3493 89.8002 11.056 89.4695 10.832C89.1495 10.608 88.7495 10.496 88.2695 10.496C87.7682 10.496 87.3362 10.6187 86.9735 10.864C86.6215 11.0987 86.3495 11.4133 86.1575 11.808C85.9762 12.2027 85.8855 12.624 85.8855 13.072L90.2215 13.088ZM99.006 11.504C98.8033 11.2053 98.5207 10.96 98.158 10.768C97.7953 10.576 97.3633 10.48 96.862 10.48C96.3393 10.48 95.902 10.5867 95.55 10.8C95.2087 11.0133 95.038 11.312 95.038 11.696C95.038 11.8773 95.1127 12.0587 95.262 12.24C95.4113 12.4213 95.7313 12.5813 96.222 12.72L98.19 13.28C98.9687 13.4827 99.5287 13.7867 99.87 14.192C100.211 14.5973 100.382 15.0613 100.382 15.584C100.382 16.1173 100.227 16.576 99.918 16.96C99.6193 17.3333 99.198 17.6267 98.654 17.84C98.1207 18.0533 97.5073 18.16 96.814 18.16C95.9393 18.16 95.1767 17.9947 94.526 17.664C93.886 17.3227 93.4327 16.9013 93.166 16.4C93.1447 16.336 93.134 16.2827 93.134 16.24C93.134 16.1867 93.1553 16.144 93.198 16.112L93.982 15.696C94.0567 15.6533 94.1153 15.6373 94.158 15.648C94.2113 15.648 94.2487 15.6693 94.27 15.712C94.4407 15.9573 94.638 16.176 94.862 16.368C95.086 16.56 95.358 16.7147 95.678 16.832C95.998 16.9387 96.382 16.992 96.83 16.992C97.2033 16.992 97.5393 16.944 97.838 16.848C98.1473 16.7413 98.3873 16.5973 98.558 16.416C98.7287 16.2347 98.814 16.0213 98.814 15.776C98.814 15.52 98.7073 15.3013 98.494 15.12C98.2913 14.928 97.9287 14.7627 97.406 14.624L95.774 14.208C94.9633 13.9947 94.382 13.7013 94.03 13.328C93.678 12.9547 93.502 12.5067 93.502 11.984C93.502 11.4613 93.6407 11.008 93.918 10.624C94.1953 10.2293 94.5847 9.92 95.086 9.696C95.598 9.472 96.1953 9.36 96.878 9.36C97.6247 9.36 98.2807 9.504 98.846 9.792C99.4113 10.0693 99.838 10.4267 100.126 10.864C100.158 10.9067 100.179 10.9547 100.19 11.008C100.201 11.0507 100.174 11.0933 100.11 11.136L99.278 11.568C99.2353 11.5893 99.1873 11.5947 99.134 11.584C99.0913 11.5733 99.0487 11.5467 99.006 11.504Z" fill="#0E0333"/>
</svg>
