<svg width="480" height="480" viewBox="0 0 480 480" fill="none" xmlns="http://www.w3.org/2000/svg">
<rect width="480" height="480" fill="url(#paint0_linear_5190_62533)"/>
<g opacity="0.6">
<path d="M191.76 283.916C183.412 269.458 183.459 252.483 190.338 238.585L157.366 219.558C156.55 219.091 155.804 218.555 155.011 218.042C154.591 220.607 154.311 223.195 154.311 225.877V302.011C154.311 328.523 175.787 349.999 202.3 349.999C227.857 349.999 248.703 329.992 250.149 304.785C228.556 312.923 203.629 304.552 191.714 283.892L191.76 283.916Z" fill="white"/>
<path d="M202.354 177.894C219.05 177.894 233.717 186.428 242.321 199.346L275.293 180.319C276.109 179.852 276.949 179.456 277.788 179.036C275.783 177.404 273.661 175.865 271.352 174.513L205.409 136.434C182.464 123.189 153.106 131.048 139.862 153.993C127.083 176.122 133.985 204.173 155.088 218.024C158.843 195.266 178.546 177.87 202.377 177.87L202.354 177.894Z" fill="white"/>
<path d="M190.367 238.587C194.424 230.402 200.837 223.267 209.348 218.37L242.32 199.319C233.715 186.401 219.025 177.866 202.352 177.866C178.521 177.866 158.794 195.262 155.063 218.02C155.833 218.533 156.602 219.069 157.418 219.536L190.39 238.563L190.367 238.587Z" fill="white" fill-opacity="0.5"/>
<path d="M340.84 197.849C328.062 175.721 300.313 167.676 277.764 179.008C295.603 193.629 300.803 219.419 288.887 240.055C280.539 254.512 265.826 262.954 250.319 263.956V302.011C250.319 302.944 250.226 303.877 250.179 304.81C252.604 303.9 255.006 302.828 257.314 301.498L323.258 263.42C346.203 250.175 354.085 220.818 340.817 197.873L340.84 197.849Z" fill="white"/>
<path d="M250.339 263.959C241.222 264.542 231.848 262.537 223.337 257.64L190.365 238.589C183.463 252.487 183.44 269.486 191.788 283.92C203.703 304.556 228.63 312.951 250.223 304.813C250.269 303.88 250.363 302.97 250.363 302.014V263.959H250.339Z" fill="white" fill-opacity="0.5"/>
<path d="M242.316 199.318C247.376 206.92 250.337 216.037 250.337 225.854V263.933C265.82 262.953 280.557 254.489 288.905 240.032C300.821 219.395 295.621 193.629 277.783 178.985C276.943 179.405 276.104 179.778 275.288 180.267L242.316 199.295V199.318Z" fill="white" fill-opacity="0.5"/>
</g>
<defs>
<linearGradient id="paint0_linear_5190_62533" x1="240" y1="0" x2="240" y2="480" gradientUnits="userSpaceOnUse">
<stop stop-color="#EEEAFE"/>
<stop offset="1" stop-color="#FDDEE5"/>
</linearGradient>
</defs>
</svg>
